# xmcd
#
# Track frame offsets: 
#        182
#        16755
#        31555
#        45425
#        60950
#        75362
#        94360
#        117537
#        132610
#        149367
#
# Disc length: 2202 seconds
#
# Revision: 4
# Processed by: cddbd v1.5.2PL0 Copyright (c) Steve Scherf et al.
# Submitted via: ExactAudioCopy v0.99pb4
#
DISCID=7708980a
DTITLE=John Berry - Faces
DYEAR=1996
DGENRE=Country
TTITLE0=She's Taken a Shine
TTITLE1=Change My Mind
TTITLE2=I Will, If You Will
TTITLE3=He Doesn't Even Know her
TTITLE4=Faithfully
TTITLE5=Livin' on Love
TTITLE6=Time to Be a Man
TTITLE7=Forty Again
TTITLE8=Love Is Everything
TTITLE9=I Give My Heart
EXTD=
EXTT0=
EXTT1=
EXTT2=
EXTT3=
EXTT4=
EXTT5=
EXTT6=
EXTT7=
EXTT8=
EXTT9=
PLAYORDER=
